<?xml version="1.0" encoding="iso-8859-1"?>
<!-- Generator: Adobe Illustrator 19.0.0, SVG Export Plug-In . SVG Version: 6.00 Build 0)  -->
<svg version="1.1" id="Capa_1" xmlns="http://www.w3.org/2000/svg" xmlns:xlink="http://www.w3.org/1999/xlink" x="0px" y="0px"
	 viewBox="0 0 512 512" style="enable-background:new 0 0 512 512;" xml:space="preserve">
<g>
	<g>
		<path d="M437.019,74.98C388.667,26.628,324.379,0,256,0S123.333,26.628,74.981,74.981C26.629,123.333,0,187.62,0,256.001
			c0,68.38,26.628,132.668,74.98,181.02C123.332,485.371,187.619,512,255.999,512s132.668-26.628,181.02-74.98
			C485.371,388.667,512,324.38,512,256S485.371,123.333,437.019,74.98z M415.806,415.807C373.12,458.492,316.366,482,255.999,482
			s-117.121-23.508-159.806-66.193C53.507,373.121,30,316.368,30,256.001S53.509,138.88,96.194,96.194
			C138.88,53.508,195.633,30,256,30s117.12,23.508,159.807,66.193C503.922,184.311,503.922,327.689,415.806,415.807z"/>
	</g>
</g>
<g>
	<g>
		<path d="M368.854,347.642l-91.641-91.641l91.641-91.641c5.857-5.858,5.857-15.355-0.001-21.212
			c-5.857-5.858-15.355-5.858-21.213,0L256,234.788l-91.641-91.641c-5.857-5.858-15.355-5.858-21.213,0
			c-5.858,5.858-5.858,15.355,0,21.213l91.641,91.641l-91.641,91.641c-5.858,5.858-5.858,15.355,0,21.213
			c2.929,2.929,6.768,4.393,10.606,4.393c3.839,0,7.678-1.464,10.607-4.393L256,277.214l91.641,91.641
			c2.929,2.929,6.768,4.393,10.607,4.393s7.678-1.464,10.606-4.393C374.712,362.997,374.712,353.5,368.854,347.642z"/>
	</g>
</g>
<g>
</g>
<g>
</g>
<g>
</g>
<g>
</g>
<g>
</g>
<g>
</g>
<g>
</g>
<g>
</g>
<g>
</g>
<g>
</g>
<g>
</g>
<g>
</g>
<g>
</g>
<g>
</g>
<g>
</g>
</svg>
