<svg width="230" height="230" viewBox="0 0 230 230" fill="none" xmlns="http://www.w3.org/2000/svg">
<path d="M98.4998 203.399L97.9566 209.178L99.4516 209.838L100.295 207.115C99.6268 205.911 99.0274 204.671 98.4998 203.399V203.399Z" fill="white"/>
<path d="M110.853 213.934C114.953 217.871 119.868 220.859 125.25 222.686C115.558 215.037 110.168 204.051 107.356 196.207L106.533 201.507C106.452 202.018 106.189 202.483 105.791 202.814C105.394 203.146 104.89 203.322 104.372 203.309L103.115 203.275C105.045 207.257 107.665 210.866 110.853 213.934V213.934Z" fill="white"/>
<path d="M47.7331 85.6031C56.0144 99.7019 59.6823 111.581 60.1517 113.163C61.3368 113.498 62.4699 113.837 63.551 114.179C62.2846 110.337 59.1307 100.946 56.8576 95.6894C56.7467 95.4328 56.6875 95.1569 56.6833 94.8774C56.679 94.5979 56.7299 94.3202 56.8329 94.0604C56.936 93.8005 57.0892 93.5635 57.2839 93.3629C57.4785 93.1622 57.7108 93.0019 57.9674 92.891C58.224 92.7801 58.5 92.7209 58.7795 92.7167C59.059 92.7124 59.3366 92.7633 59.5965 92.8664C59.8563 92.9694 60.0933 93.1226 60.294 93.3173C60.4946 93.5119 60.655 93.7442 60.7658 94.0008C63.7365 100.874 67.9825 114.028 68.1618 114.585C68.2822 114.963 68.2936 115.368 68.1946 115.753C72.1156 117.134 75.9145 118.84 79.5517 120.852C80.5849 120.667 82.495 120.364 84.9765 120.146C80.0387 106.528 85.5816 95.432 88.3151 91.1456C72.4949 80.0139 66.5985 66.0374 64.4517 56.1065C63.1733 50.28 62.8312 44.2871 63.4382 38.3529C45.6855 35.4573 34.2161 29.3569 29.3385 20.2081C26.8799 15.5175 26.1841 10.1011 27.3772 4.94141C18.6116 7.96959 12.2412 12.8548 8.41073 19.4961C2.59424 29.5833 4.27791 40.8964 4.94635 44.1816C16.7918 49.7285 33.5041 61.3781 47.7331 85.6031V85.6031ZM22.3226 23.836C14.8921 31.2521 18.7625 41.5559 18.8021 41.6592C18.903 41.9199 18.9515 42.1978 18.945 42.4773C18.9385 42.7567 18.877 43.0321 18.764 43.2878C18.6511 43.5434 18.4889 43.7743 18.2867 43.9673C18.0845 44.1603 17.8462 44.3116 17.5856 44.4125C17.3249 44.5134 17.0469 44.5619 16.7675 44.5554C16.4881 44.5489 16.2127 44.4874 15.957 44.3744C15.7013 44.2615 15.4704 44.0993 15.2774 43.8971C15.0845 43.6949 14.9332 43.4566 14.8323 43.196C14.6284 42.669 9.94166 30.1781 19.3155 20.8249C19.7151 20.4261 20.2567 20.2024 20.8213 20.203C21.3858 20.2036 21.927 20.4284 22.3257 20.828C22.7245 21.2276 22.9482 21.7693 22.9476 22.3338C22.947 22.8983 22.7222 23.4395 22.3226 23.8382V23.836ZM25.327 43.1564C25.1341 42.6264 25.1595 42.0414 25.3977 41.5301C25.636 41.0188 26.0674 40.623 26.5973 40.4297C39.8219 35.61 56.3163 44.2373 57.0117 44.6074C57.2586 44.7386 57.4772 44.917 57.655 45.1327C57.8329 45.3483 57.9666 45.5968 58.0484 45.8641C58.1302 46.1314 58.1586 46.4122 58.1319 46.6904C58.1052 46.9687 58.024 47.2389 57.8928 47.4858C57.7617 47.7326 57.5832 47.9513 57.3676 48.1291C57.152 48.307 56.9034 48.4407 56.6362 48.5225C56.3689 48.6043 56.0881 48.6327 55.8098 48.606C55.5316 48.5793 55.2613 48.4981 55.0145 48.3669C54.7899 48.2488 39.4612 40.2734 28.0555 44.4304C27.7927 44.5261 27.5136 44.569 27.2342 44.5567C26.9549 44.5444 26.6806 44.4772 26.4272 44.3589C26.1738 44.2406 25.9462 44.0735 25.7574 43.8672C25.5686 43.6608 25.4224 43.4193 25.327 43.1564Z" fill="white"/>
<path d="M86.5573 166.728C85.4387 165.948 84.0744 165.009 82.4694 163.947L77.4188 178.525C77.2542 178.997 77.2115 179.502 77.2947 179.994C77.378 180.486 77.5845 180.949 77.895 181.34L81.4887 185.891C81.7661 186.244 82.1204 186.529 82.5246 186.725C82.9288 186.921 83.3724 187.022 83.8215 187.021C85.248 187.019 86.6431 187.44 87.8304 188.23C89.0177 189.021 89.9438 190.146 90.4915 191.463L90.7444 192.069L92.9708 191.726C92.72 190.979 92.3142 190.294 91.78 189.716C91.2458 189.137 90.5953 188.677 89.8712 188.368L89.6987 188.294C88.1248 187.616 86.7543 186.54 85.7215 185.172C84.6887 183.804 84.029 182.192 83.8071 180.492L83.1634 175.465C82.9603 173.841 83.1642 172.193 83.7566 170.668C84.3491 169.143 85.3115 167.789 86.5573 166.728V166.728Z" fill="white"/>
<path d="M185.277 51.3282C171.066 50.2177 157.769 52.1543 153.46 52.8847C151.649 62.9715 143.769 80.2543 117.674 107.179C116.26 108.638 114.827 111.434 113.44 114.137C110.49 119.887 107.147 126.409 101.405 125.179C90.6335 122.874 79.7139 125.156 79.6038 125.179C79.0577 125.296 78.4874 125.194 78.0163 124.894C77.935 124.842 69.4416 119.545 53.2284 115.774C49.9522 114.985 46.5825 114.654 43.2153 114.789C42.4994 116.929 41.619 119.01 40.582 121.013C40.2969 121.493 39.8346 121.842 39.2947 121.985C38.7549 122.127 38.1807 122.052 37.6958 121.775C37.211 121.498 36.8544 121.041 36.7028 120.504C36.5512 119.967 36.6167 119.391 36.8854 118.902C38.0201 116.917 39.5546 112.487 40.6044 109.201C31.7099 111.276 31.5495 122.576 31.5468 123.103C31.5447 123.667 31.3196 124.206 30.9207 124.604C30.5218 125.002 29.9817 125.225 29.4184 125.226H29.414C28.8505 125.225 28.3103 125.001 27.9121 124.602C27.5139 124.203 27.2902 123.663 27.29 123.099C27.3765 119.998 28.0363 116.939 29.2361 114.077C30.231 111.663 31.7961 109.525 33.7974 107.848C34.0661 105.545 34.0831 103.22 33.8482 100.914C24.9087 108.869 23.5404 126.151 23.4856 126.91L22.9466 141.304C22.9428 141.452 22.9921 141.596 23.0856 141.71C23.1791 141.825 23.3105 141.902 23.456 141.928L28.3412 142.816L31.4247 137.969C31.673 137.58 32.0415 137.281 32.4745 137.119C32.5374 137.095 38.3336 134.825 40.6669 129.599C39.0403 129.801 38.0776 130.024 38.0345 130.034C37.4861 130.168 36.9069 130.079 36.4244 129.786C35.9419 129.492 35.5955 129.02 35.4616 128.471C35.3276 127.923 35.417 127.344 35.71 126.861C36.003 126.379 36.4758 126.032 37.0242 125.898C37.9406 125.674 59.6473 120.587 75.9863 136.658C76.3888 137.054 76.6176 137.594 76.6223 138.158C76.627 138.723 76.4073 139.266 76.0114 139.668C75.6156 140.071 75.076 140.3 74.5115 140.304C73.947 140.309 73.4037 140.089 73.0012 139.694C71.8595 138.57 70.6424 137.525 69.3585 136.567C70.9002 143.274 74.5034 153.773 82.4977 158.887C85.8614 161.04 88.4525 162.858 90.1667 164.061L90.9071 164.579C90.939 164.572 90.9686 164.562 91.0005 164.555L99.1111 162.933C100.657 162.625 102.254 162.692 103.769 163.128C105.283 163.565 106.671 164.358 107.816 165.441L112.974 170.328C113.179 170.519 113.343 170.75 113.459 171.005C113.574 171.261 113.638 171.537 113.646 171.817C113.654 172.098 113.607 172.377 113.507 172.639C113.407 172.901 113.257 173.141 113.064 173.344C112.871 173.548 112.64 173.711 112.383 173.825C112.127 173.939 111.851 174.002 111.57 174.008C111.29 174.015 111.011 173.967 110.749 173.865C110.488 173.764 110.249 173.612 110.046 173.418L104.889 168.531C104.239 167.916 103.451 167.466 102.591 167.218C101.731 166.971 100.825 166.933 99.9471 167.108L91.8365 168.727C90.4506 169.008 89.2221 169.803 88.397 170.951C87.5719 172.1 87.211 173.518 87.3865 174.921L88.0312 179.95C88.1572 180.914 88.5316 181.83 89.1178 182.606C89.704 183.383 90.4819 183.993 91.3751 184.379L91.5468 184.452C93.3199 185.21 94.8313 186.472 95.893 188.082C96.9548 189.691 97.5201 191.578 97.5187 193.506C97.5187 194.014 97.3367 194.506 97.0058 194.892C96.6748 195.278 96.2166 195.532 95.7142 195.61L90.2548 196.45C89.204 196.606 88.2449 197.136 87.5532 197.943C86.8614 198.749 86.4833 199.777 86.4881 200.84V205.193L87.9346 205.59L87.9656 205.464C88.4464 203.539 89.5679 201.834 91.1457 200.631C92.7234 199.428 94.6635 198.797 96.6472 198.843L102.613 199.003L105.495 180.433C105.537 180.156 105.634 179.891 105.78 179.653C105.925 179.414 106.116 179.206 106.341 179.041C106.567 178.876 106.823 178.757 107.095 178.691C107.366 178.625 107.648 178.613 107.925 178.655C108.201 178.698 108.466 178.795 108.705 178.94C108.944 179.086 109.152 179.277 109.317 179.502C109.482 179.728 109.601 179.984 109.667 180.256C109.733 180.527 109.745 180.809 109.702 181.085L108.911 186.184C109.522 189.134 114.554 211.044 130.952 221.526C132.465 222.226 152.219 230.955 167.65 218.037C167.692 218.003 167.735 217.969 167.78 217.938L175.285 212.579L177.801 210.165C181.405 206.72 183.54 202.018 183.763 197.038L184.017 191.576L179.504 195.682C175.932 198.927 173.697 203.388 173.238 208.193L172.891 211.786C172.849 212.224 172.672 212.639 172.385 212.972C161.894 225.14 142.942 221.273 142.14 221.103C125.532 217.27 123.647 199.435 123.63 199.255C123.622 199.181 123.619 199.106 123.62 199.031C123.979 164.427 116.391 156.992 115.888 156.54C115.647 156.388 115.442 156.187 115.285 155.949C115.129 155.711 115.026 155.443 114.983 155.161C114.939 154.867 114.958 154.567 115.04 154.281C115.121 153.994 115.263 153.729 115.456 153.503C122.079 145.012 132.233 140.026 144.822 139.083C149.786 138.724 154.775 138.957 159.684 139.778C163.976 118.585 174.774 108.018 183.219 102.861C188.252 99.7584 193.864 97.7118 199.713 96.8457C200.516 88.4269 203.57 82.0498 208.805 77.8716C214.602 73.2446 221.607 72.5066 225.801 72.5636C219.768 60.0983 206.157 52.9602 185.277 51.3282V51.3282ZM27.3264 134.801C26.8587 134.801 26.4014 134.662 26.0124 134.402C25.6235 134.143 25.3203 133.773 25.1413 133.341C24.9623 132.909 24.9155 132.433 25.0067 131.975C25.098 131.516 25.3233 131.094 25.654 130.764C25.9848 130.433 26.4062 130.208 26.865 130.116C27.3238 130.025 27.7994 130.072 28.2315 130.251C28.6637 130.43 29.0331 130.733 29.293 131.122C29.5529 131.511 29.6916 131.968 29.6916 132.436C29.6909 133.063 29.4414 133.664 28.998 134.108C28.5547 134.551 27.9535 134.8 27.3264 134.801ZM156.68 133.107C156.592 133.373 156.453 133.618 156.27 133.83C156.087 134.041 155.864 134.215 155.614 134.34C155.364 134.465 155.092 134.54 154.813 134.561C154.534 134.581 154.254 134.546 153.988 134.458C153.723 134.37 153.477 134.23 153.266 134.047C153.054 133.864 152.881 133.642 152.755 133.392C152.63 133.142 152.555 132.869 152.535 132.59C152.514 132.311 152.549 132.031 152.637 131.766C152.709 131.55 159.695 110.028 152.711 94.2389C152.596 93.983 152.533 93.7069 152.525 93.4264C152.517 93.146 152.565 92.8667 152.665 92.6047C152.766 92.3427 152.917 92.1032 153.11 91.8999C153.304 91.6966 153.535 91.5335 153.792 91.42C154.049 91.3065 154.325 91.2448 154.605 91.2386C154.886 91.2323 155.165 91.2816 155.426 91.3836C155.688 91.4855 155.926 91.6382 156.129 91.8327C156.331 92.0272 156.492 92.2598 156.604 92.517C164.263 109.825 156.993 132.165 156.68 133.107ZM161.075 58.7052C159.812 68.5292 152.537 86.1925 125.048 114.554C124.854 114.755 124.621 114.915 124.365 115.026C124.108 115.137 123.833 115.196 123.553 115.201C123.274 115.205 122.996 115.155 122.736 115.052C122.476 114.949 122.239 114.796 122.038 114.601C121.838 114.407 121.677 114.174 121.566 113.918C121.455 113.661 121.396 113.385 121.391 113.106C121.387 112.826 121.438 112.549 121.541 112.289C121.644 112.029 121.797 111.792 121.991 111.591C134.044 99.1551 154.6 75.6776 156.851 58.1626C156.886 57.8853 156.976 57.6178 157.115 57.3753C157.254 57.1327 157.44 56.92 157.661 56.7491C157.882 56.5783 158.135 56.4526 158.405 56.3795C158.674 56.3063 158.956 56.2869 159.233 56.3226C159.511 56.3582 159.778 56.4481 160.021 56.5871C160.263 56.7261 160.476 56.9116 160.647 57.1328C160.818 57.3541 160.943 57.6068 161.016 57.8766C161.09 58.1464 161.109 58.428 161.073 58.7052H161.075ZM194.187 94.9518C193.639 95.0834 193.06 94.9917 192.579 94.6969C192.098 94.402 191.754 93.9282 191.622 93.3795C191.426 92.5777 186.638 74.0654 164.195 70.3629C163.917 70.3205 163.649 70.2232 163.409 70.0766C163.168 69.9301 162.959 69.7373 162.793 69.5093C162.628 69.2813 162.509 69.0227 162.444 68.7485C162.379 68.4743 162.37 68.19 162.415 67.912C162.461 67.634 162.562 67.3678 162.711 67.129C162.861 66.8901 163.056 66.6833 163.286 66.5206C163.516 66.3578 163.776 66.2423 164.051 66.1808C164.326 66.1193 164.611 66.113 164.888 66.1623C178.088 68.3401 185.773 75.3178 189.895 80.7879C194.371 86.7284 195.707 92.1554 195.761 92.3836C195.827 92.6556 195.838 92.9378 195.794 93.2141C195.75 93.4904 195.653 93.7554 195.507 93.9939C195.36 94.2324 195.169 94.4398 194.942 94.6042C194.716 94.7685 194.459 94.8867 194.187 94.9518Z" fill="white"/>
<path d="M176.717 143.647C175.286 147.7 174.201 151.867 173.472 156.104C173.423 156.379 173.429 156.661 173.49 156.934C173.551 157.207 173.664 157.465 173.825 157.694C173.985 157.923 174.189 158.118 174.425 158.268C174.661 158.418 174.924 158.52 175.199 158.569C175.321 158.59 175.446 158.601 175.57 158.601C176.07 158.601 176.554 158.424 176.937 158.102C177.32 157.78 177.577 157.334 177.664 156.841C178.351 152.842 179.376 148.908 180.725 145.082C180.819 144.818 180.861 144.539 180.847 144.26C180.833 143.981 180.765 143.707 180.645 143.454C180.526 143.202 180.358 142.975 180.151 142.787C179.944 142.6 179.702 142.455 179.438 142.36C179.175 142.266 178.896 142.225 178.617 142.238C178.338 142.252 178.064 142.321 177.811 142.44C177.559 142.56 177.332 142.728 177.144 142.935C176.957 143.142 176.811 143.384 176.717 143.647V143.647Z" fill="white"/>
<path d="M188.245 130.988C188.419 130.767 188.546 130.513 188.621 130.242C188.696 129.97 188.716 129.687 188.68 129.408C188.645 129.129 188.554 128.859 188.414 128.615C188.274 128.371 188.086 128.158 187.863 127.987C187.64 127.816 187.385 127.69 187.112 127.619C186.84 127.547 186.557 127.53 186.278 127.568C185.999 127.606 185.731 127.7 185.488 127.843C185.246 127.986 185.034 128.175 184.866 128.4C184.164 129.317 183.478 130.28 182.83 131.262C182.676 131.495 182.569 131.757 182.516 132.031C182.463 132.306 182.464 132.588 182.52 132.862C182.576 133.135 182.686 133.396 182.842 133.627C182.999 133.859 183.199 134.057 183.433 134.211C183.666 134.365 183.927 134.472 184.202 134.525C184.476 134.578 184.758 134.577 185.032 134.521C185.306 134.465 185.566 134.355 185.798 134.199C186.029 134.042 186.228 133.842 186.382 133.608C186.976 132.708 187.604 131.827 188.245 130.988V130.988Z" fill="white"/>
<path d="M215.815 110.849C212.749 111.079 209.725 111.703 206.817 112.704C201.127 114.574 195.868 117.561 191.347 121.489C191.136 121.673 190.963 121.896 190.838 122.146C190.713 122.396 190.639 122.668 190.619 122.947C190.6 123.226 190.635 123.506 190.724 123.771C190.812 124.036 190.952 124.281 191.135 124.492C191.319 124.703 191.542 124.876 191.792 125.001C192.042 125.126 192.314 125.2 192.593 125.22C192.872 125.239 193.152 125.204 193.417 125.115C193.682 125.027 193.927 124.887 194.138 124.704C198.232 121.147 202.994 118.443 208.145 116.749C210.678 115.879 213.308 115.326 215.977 115.103C216.541 115.082 217.073 114.837 217.457 114.423C217.841 114.009 218.044 113.46 218.023 112.895C218.001 112.331 217.757 111.799 217.343 111.415C216.929 111.031 216.379 110.828 215.815 110.849V110.849Z" fill="white"/>
<path d="M104.316 87.6497C104.787 87.9602 105.363 88.0706 105.916 87.9567C106.469 87.8428 106.954 87.5139 107.264 87.0424C107.574 86.5709 107.685 85.9954 107.571 85.4425C107.457 84.8896 107.128 84.4046 106.657 84.0942C100.885 80.3634 95.8169 75.6434 91.6855 70.1513C91.3483 69.7014 90.8468 69.4031 90.2905 69.3217C89.7341 69.2402 89.1681 69.3821 88.7161 69.7165C88.264 70.0509 87.9626 70.5505 87.8776 71.1063C87.7926 71.6621 87.931 72.229 88.2625 72.6831C92.6915 78.5775 98.1259 83.644 104.316 87.6497V87.6497Z" fill="white"/>
<path d="M80.376 49.4141C79.8255 49.5392 79.3471 49.8779 79.0462 50.3556C78.7453 50.8333 78.6465 51.411 78.7714 51.9616C79.6503 55.8383 80.9399 59.6103 82.6185 63.2136C82.8574 63.7251 83.2898 64.1207 83.8204 64.3134C84.351 64.5061 84.9364 64.4801 85.4479 64.2412C85.9594 64.0023 86.355 63.57 86.5477 63.0393C86.7404 62.5087 86.7144 61.9233 86.4755 61.4118C84.9251 58.0835 83.7343 54.5993 82.9235 51.0182C82.7983 50.4678 82.4596 49.9896 81.9819 49.6887C81.5042 49.3879 80.9265 49.2891 80.376 49.4141Z" fill="white"/>
<path d="M79.4219 39.4414H79.4996C80.0507 39.4411 80.5802 39.227 80.9766 38.8442C81.3731 38.4614 81.6056 37.9397 81.6253 37.3889C81.6684 35.6705 81.8349 33.9574 82.1235 32.2629C82.2323 31.7105 82.118 31.1375 81.8054 30.6692C81.4928 30.201 81.0074 29.8756 80.4555 29.7643C79.9036 29.6531 79.3301 29.765 78.8605 30.0756C78.3909 30.3861 78.0634 30.8701 77.9498 31.4215C77.6127 33.3428 77.4193 35.2866 77.3712 37.2366C77.361 37.5161 77.4059 37.7948 77.5035 38.0569C77.601 38.3189 77.7493 38.5592 77.9397 38.7639C78.1301 38.9687 78.3591 39.1339 78.6134 39.2502C78.8677 39.3664 79.1424 39.4314 79.4219 39.4414V39.4414Z" fill="white"/>
</svg>
