<svg width="1000" height="1000" viewBox="0 0 1000 1000" fill="none" xmlns="http://www.w3.org/2000/svg">
<rect width="1000" height="1000" fill="#DBDBDB"/>
<path d="M500 756C383.668 756 308.5 671.2 308.5 540.02C308.794 469.741 327.795 400.808 363.552 340.304C401.2 278.196 449.668 244 500 244C550.332 244 598.8 278.196 636.448 340.304C672.205 400.808 691.206 469.741 691.5 540.02C691.5 671.2 616.332 756 500 756ZM500 258C400.036 258 322.5 409.6 322.5 540.032C322.5 662.712 392.172 742 500 742C607.828 742 677.5 662.724 677.5 540.032C677.5 409.6 599.964 258 500 258Z" fill="#AFAFAF"/>
<path d="M588.504 359.436C587.366 359.439 586.244 359.163 585.237 358.633C584.229 358.103 583.367 357.335 582.724 356.396C557.3 319.276 527.152 298 500 298C498.143 298 496.363 297.263 495.05 295.95C493.737 294.637 493 292.857 493 291C493 289.143 493.737 287.363 495.05 286.05C496.363 284.737 498.143 284 500 284C532.308 284 565.788 306.908 594.272 348.492C594.992 349.543 595.411 350.77 595.485 352.042C595.559 353.314 595.285 354.582 594.691 355.709C594.098 356.836 593.208 357.78 592.118 358.439C591.027 359.098 589.778 359.447 588.504 359.448V359.436Z" fill="#AFAFAF"/>
<path d="M499.122 472C479.622 472 468.455 479.667 465.622 495H444.622C445.789 482.667 450.872 472.75 459.872 465.25C468.872 457.75 481.455 454 497.622 454C513.955 454 526.789 458 536.122 466C545.622 474 550.372 483.75 550.372 495.25C550.372 503.917 548.205 511.167 543.872 517C539.539 522.667 532.539 528.167 522.872 533.5C518.705 535.833 515.205 537.917 512.372 539.75C509.539 541.583 507.289 543.667 505.622 546C502.455 550.167 500.872 556.167 500.872 564V573.75H481.372V562.5C481.372 552 483.122 544 486.622 538.5C490.122 532.833 496.455 527.5 505.622 522.5C514.789 517.5 520.955 513.167 524.122 509.5C527.289 505.667 528.872 500.583 528.872 494.25C528.872 487.917 526.205 482.667 520.872 478.5C515.705 474.167 508.455 472 499.122 472ZM491.372 588.5C495.705 588.5 499.289 589.917 502.122 592.75C504.955 595.583 506.372 599 506.372 603C506.372 606.833 504.955 610.083 502.122 612.75C499.289 615.417 495.705 616.75 491.372 616.75C487.039 616.75 483.539 615.417 480.872 612.75C478.205 610.083 476.872 606.833 476.872 603C476.872 599 478.205 595.583 480.872 592.75C483.539 589.917 487.039 588.5 491.372 588.5Z" fill="#AFAFAF"/>
</svg>
