<svg width="425" height="176" viewBox="0 0 425 176" fill="none" xmlns="http://www.w3.org/2000/svg">
<path d="M30.916 138V91.08C36.8093 90.672 42.3853 90.468 47.644 90.468C54.3987 90.468 59.136 92.236 61.856 95.772C64.576 99.2627 65.936 105.519 65.936 114.54C65.936 123.561 64.576 129.84 61.856 133.376C59.136 136.867 54.3987 138.612 47.644 138.612C42.3853 138.612 36.8093 138.408 30.916 138ZM36.9 95.772V133.24C40.98 133.331 44.5613 133.376 47.644 133.376C52.132 133.376 55.26 132.016 57.028 129.296C58.796 126.531 59.68 121.612 59.68 114.54C59.68 107.468 58.796 102.549 57.028 99.784C55.26 97.0187 52.132 95.636 47.644 95.636C44.7427 95.636 41.1613 95.6813 36.9 95.772ZM96.2003 104.068L95.5203 109.508H93.6163C91.9389 109.508 90.1936 109.848 88.3803 110.528C86.6123 111.163 84.2323 112.228 81.2403 113.724V138H75.4603V104.884H79.9483L80.5603 110.12C85.6829 106.085 90.3976 104.068 94.7043 104.068H96.2003ZM102.957 109.848L102.413 105.564C108.488 104.567 113.815 104.068 118.393 104.068C122.247 104.068 125.103 104.884 126.961 106.516C128.82 108.103 129.749 110.823 129.749 114.676V138H125.193L124.513 132.56C122.927 134.147 120.932 135.552 118.529 136.776C116.172 138 113.611 138.612 110.845 138.612C107.808 138.612 105.383 137.819 103.569 136.232C101.801 134.6 100.917 132.311 100.917 129.364V125.76C100.917 123.176 101.711 121.181 103.297 119.776C104.929 118.325 107.196 117.6 110.097 117.6H123.901V114.676C123.901 112.591 123.425 111.117 122.473 110.256C121.521 109.395 119.753 108.964 117.169 108.964C113.905 108.964 109.168 109.259 102.957 109.848ZM106.833 126.576V128.684C106.833 130.407 107.241 131.676 108.057 132.492C108.873 133.263 110.188 133.648 112.001 133.648C113.724 133.693 115.673 133.285 117.849 132.424C120.071 131.563 122.088 130.316 123.901 128.684V122.02H111.117C109.576 122.065 108.465 122.473 107.785 123.244C107.151 124.015 106.833 125.125 106.833 126.576ZM164.894 133.24L165.506 137.116C162.242 138.249 158.456 138.816 154.15 138.816C148.438 138.816 144.38 137.524 141.978 134.94C139.62 132.311 138.442 127.8 138.442 121.408C138.442 115.016 139.62 110.528 141.978 107.944C144.38 105.36 148.46 104.068 154.218 104.068C158.57 104.068 162.128 104.589 164.894 105.632L164.146 109.372C161.154 109.1 158.162 108.964 155.17 108.964C151.18 108.964 148.415 109.848 146.874 111.616C145.332 113.384 144.562 116.648 144.562 121.408C144.562 126.213 145.332 129.5 146.874 131.268C148.415 133.036 151.18 133.92 155.17 133.92C158.796 133.92 162.038 133.693 164.894 133.24ZM173.547 109.848L173.003 105.564C179.078 104.567 184.404 104.068 188.983 104.068C192.836 104.068 195.692 104.884 197.551 106.516C199.41 108.103 200.339 110.823 200.339 114.676V138H195.783L195.103 132.56C193.516 134.147 191.522 135.552 189.119 136.776C186.762 138 184.2 138.612 181.435 138.612C178.398 138.612 175.972 137.819 174.159 136.232C172.391 134.6 171.507 132.311 171.507 129.364V125.76C171.507 123.176 172.3 121.181 173.887 119.776C175.519 118.325 177.786 117.6 180.687 117.6H194.491V114.676C194.491 112.591 194.015 111.117 193.063 110.256C192.111 109.395 190.343 108.964 187.759 108.964C184.495 108.964 179.758 109.259 173.547 109.848ZM177.423 126.576V128.684C177.423 130.407 177.831 131.676 178.647 132.492C179.463 133.263 180.778 133.648 182.591 133.648C184.314 133.693 186.263 133.285 188.439 132.424C190.66 131.563 192.678 130.316 194.491 128.684V122.02H181.707C180.166 122.065 179.055 122.473 178.375 123.244C177.74 124.015 177.423 125.125 177.423 126.576ZM231.403 104.068L230.723 109.508H228.819C227.142 109.508 225.397 109.848 223.583 110.528C221.815 111.163 219.435 112.228 216.443 113.724V138H210.663V104.884H215.151L215.763 110.12C220.886 106.085 225.601 104.068 229.907 104.068H231.403ZM267.332 104.884L254.072 139.836C251.171 147.633 246.343 151.691 239.588 152.008L239.044 148.2C241.628 147.384 243.646 146.251 245.096 144.8C246.592 143.395 247.794 141.604 248.7 139.428L249.244 138H247.952C246.864 138 246.184 137.501 245.912 136.504L233.876 104.884H240.064L248.836 129.568C249.471 131.427 249.879 132.764 250.06 133.58H251.012C251.375 132.673 251.851 131.336 252.44 129.568L261.076 104.884H267.332ZM289.045 124.604L279.525 122.428C276.805 121.793 274.878 120.773 273.745 119.368C272.611 117.963 272.045 115.9 272.045 113.18C272.045 109.508 272.997 107.06 274.901 105.836C276.85 104.567 280.205 103.977 284.965 104.068C290.269 104.159 294.915 104.499 298.905 105.088L298.429 109.304C291.538 109.077 287.345 108.964 285.849 108.964C282.494 108.919 280.295 109.123 279.253 109.576C278.21 110.029 277.689 111.231 277.689 113.18C277.689 114.767 278.029 115.855 278.709 116.444C279.434 117.033 280.703 117.532 282.517 117.94L292.173 120.116C294.893 120.796 296.842 121.816 298.021 123.176C299.245 124.491 299.857 126.508 299.857 129.228C299.857 133.081 298.791 135.643 296.661 136.912C294.53 138.136 290.881 138.748 285.713 138.748C281.089 138.748 276.759 138.431 272.725 137.796L273.133 133.58C276.986 133.807 280.794 133.897 284.557 133.852C288.41 133.852 290.994 133.557 292.309 132.968C293.623 132.379 294.281 131.132 294.281 129.228C294.281 127.732 293.873 126.712 293.057 126.168C292.286 125.579 290.949 125.057 289.045 124.604Z" fill="white"/>
<path d="M330.819 122.006L330.534 125.046L331.32 125.393L331.764 123.96C331.412 123.327 331.097 122.675 330.819 122.006V122.006Z" fill="white"/>
<path d="M337.318 127.548C339.475 129.619 342.061 131.191 344.892 132.152C339.794 128.128 336.958 122.349 335.478 118.222L335.046 121.01C335.003 121.279 334.864 121.524 334.655 121.698C334.446 121.872 334.181 121.965 333.909 121.958L333.247 121.94C334.263 124.035 335.641 125.934 337.318 127.548V127.548Z" fill="white"/>
<path d="M304.112 60.0347C308.468 67.4518 310.398 73.7013 310.645 74.5334C311.268 74.71 311.865 74.8882 312.433 75.068C311.767 73.0469 310.108 68.1065 308.912 65.341C308.854 65.206 308.823 65.0608 308.82 64.9137C308.818 64.7667 308.845 64.6206 308.899 64.4839C308.953 64.3472 309.034 64.2225 309.136 64.117C309.239 64.0114 309.361 63.9271 309.496 63.8688C309.631 63.8104 309.776 63.7793 309.923 63.777C310.07 63.7748 310.216 63.8016 310.353 63.8558C310.49 63.91 310.614 63.9906 310.72 64.093C310.825 64.1954 310.91 64.3176 310.968 64.4526C312.531 68.0684 314.765 74.9886 314.859 75.2816C314.922 75.4808 314.928 75.6937 314.876 75.8961C316.939 76.6226 318.938 77.52 320.851 78.5789C321.395 78.4813 322.4 78.322 323.705 78.2071C321.107 71.0428 324.023 65.2055 325.461 62.9505C317.139 57.0943 314.037 49.7414 312.907 44.5169C312.235 41.4517 312.055 38.2989 312.374 35.177C303.035 33.6536 297.001 30.4443 294.435 25.6312C293.141 23.1636 292.775 20.3141 293.403 17.5996C288.791 19.1927 285.44 21.7628 283.425 25.2566C280.365 30.5634 281.251 36.5151 281.602 38.2433C287.834 41.1615 296.626 47.2902 304.112 60.0347V60.0347ZM290.744 27.5398C286.835 31.4413 288.871 36.862 288.892 36.9164C288.945 37.0535 288.97 37.1997 288.967 37.3467C288.963 37.4937 288.931 37.6386 288.872 37.7731C288.812 37.9076 288.727 38.0291 288.62 38.1306C288.514 38.2322 288.389 38.3117 288.252 38.3648C288.114 38.4179 287.968 38.4435 287.821 38.44C287.674 38.4366 287.529 38.4042 287.395 38.3448C287.26 38.2854 287.139 38.2 287.037 38.0937C286.936 37.9873 286.856 37.862 286.803 37.7248C286.696 37.4476 284.23 30.8763 289.162 25.9557C289.372 25.7459 289.657 25.6282 289.954 25.6285C290.251 25.6289 290.535 25.7471 290.745 25.9574C290.955 26.1676 291.073 26.4525 291.072 26.7495C291.072 27.0465 290.954 27.3312 290.744 27.541V27.5398ZM292.324 37.704C292.223 37.4252 292.236 37.1174 292.361 36.8484C292.487 36.5795 292.714 36.3712 292.993 36.2695C299.95 33.734 308.627 38.2726 308.993 38.4674C309.123 38.5364 309.238 38.6303 309.332 38.7437C309.425 38.8571 309.495 38.9879 309.539 39.1285C309.582 39.2691 309.596 39.4168 309.582 39.5632C309.568 39.7096 309.526 39.8518 309.457 39.9817C309.388 40.1115 309.294 40.2265 309.18 40.3201C309.067 40.4137 308.936 40.484 308.796 40.5271C308.655 40.5701 308.507 40.585 308.361 40.571C308.214 40.5569 308.072 40.5142 307.942 40.4452C307.824 40.3831 299.76 36.1873 293.76 38.3743C293.621 38.4246 293.475 38.4472 293.328 38.4407C293.181 38.4342 293.036 38.3989 292.903 38.3366C292.77 38.2744 292.65 38.1865 292.551 38.0779C292.451 37.9694 292.374 37.8423 292.324 37.704Z" fill="white"/>
<path d="M324.537 102.714C323.948 102.303 323.23 101.809 322.386 101.251L319.729 108.92C319.642 109.168 319.62 109.434 319.664 109.693C319.708 109.951 319.816 110.195 319.98 110.401L321.87 112.795C322.016 112.981 322.202 113.131 322.415 113.234C322.628 113.337 322.861 113.39 323.097 113.389C323.848 113.388 324.582 113.61 325.206 114.026C325.831 114.442 326.318 115.033 326.606 115.726L326.739 116.045L327.911 115.865C327.779 115.472 327.565 115.111 327.284 114.807C327.003 114.502 326.661 114.261 326.28 114.098L326.189 114.059C325.361 113.702 324.64 113.136 324.097 112.417C323.554 111.697 323.207 110.849 323.09 109.955L322.751 107.31C322.644 106.456 322.752 105.588 323.063 104.786C323.375 103.984 323.881 103.272 324.537 102.714V102.714Z" fill="white"/>
<path d="M376.472 42.0031C368.996 41.4189 362 42.4377 359.733 42.822C358.78 48.1285 354.635 57.2207 340.907 71.3855C340.163 72.1531 339.409 73.6238 338.679 75.0458C337.128 78.0708 335.369 81.502 332.348 80.8552C326.681 79.6426 320.936 80.8431 320.879 80.8552C320.591 80.9167 320.291 80.8627 320.043 80.7049C320.001 80.6777 315.532 77.8912 307.003 75.9074C305.279 75.4922 303.506 75.3178 301.735 75.3892C301.358 76.5147 300.895 77.6094 300.35 78.6635C300.2 78.916 299.956 79.0995 299.672 79.1745C299.388 79.2494 299.086 79.2098 298.831 79.0641C298.576 78.9184 298.389 78.6784 298.309 78.3957C298.229 78.113 298.264 77.8103 298.405 77.5528C299.002 76.5087 299.809 74.178 300.361 72.4495C295.682 73.5408 295.598 79.4857 295.596 79.7631C295.595 80.0594 295.477 80.3433 295.267 80.5525C295.057 80.7617 294.773 80.8793 294.477 80.8795H294.474C294.178 80.8792 293.894 80.7612 293.684 80.5514C293.475 80.3417 293.357 80.0574 293.357 79.761C293.402 78.1292 293.75 76.52 294.381 75.0146C294.904 73.7444 295.727 72.6199 296.78 71.7374C296.922 70.526 296.931 69.3028 296.807 68.0895C292.104 72.2748 291.384 81.3664 291.355 81.7655L291.072 89.3382C291.07 89.4159 291.096 89.4917 291.145 89.5519C291.194 89.6121 291.263 89.6527 291.34 89.6662L293.91 90.1334L295.532 87.5839C295.663 87.3788 295.857 87.2218 296.084 87.1366C296.117 87.124 299.167 85.9296 300.394 83.1802C299.539 83.2865 299.032 83.4038 299.009 83.4092C298.721 83.4797 298.416 83.4327 298.162 83.2785C297.909 83.1243 297.726 82.8756 297.656 82.5871C297.585 82.2986 297.632 81.9939 297.787 81.7401C297.941 81.4862 298.189 81.304 298.478 81.2336C298.96 81.1154 310.38 78.4392 318.975 86.8941C319.187 87.1023 319.307 87.3862 319.31 87.6832C319.312 87.9802 319.197 88.266 318.989 88.4777C318.78 88.6895 318.497 88.8098 318.2 88.8123C317.903 88.8148 317.617 88.6992 317.405 88.491C316.804 87.8998 316.164 87.3503 315.489 86.8463C316.3 90.3745 318.195 95.8977 322.401 98.5883C324.171 99.721 325.534 100.677 326.436 101.31L326.825 101.583C326.842 101.579 326.857 101.574 326.874 101.57L331.141 100.717C331.954 100.555 332.795 100.59 333.591 100.82C334.388 101.049 335.118 101.466 335.721 102.036L338.434 104.607C338.542 104.708 338.628 104.829 338.689 104.964C338.75 105.098 338.783 105.243 338.788 105.391C338.792 105.538 338.767 105.685 338.715 105.823C338.662 105.961 338.583 106.087 338.481 106.194C338.38 106.301 338.258 106.387 338.123 106.447C337.989 106.507 337.843 106.54 337.696 106.544C337.548 106.547 337.401 106.522 337.264 106.468C337.126 106.415 337.001 106.335 336.894 106.233L334.18 103.662C333.839 103.339 333.424 103.102 332.972 102.971C332.519 102.841 332.043 102.821 331.581 102.913L327.314 103.765C326.585 103.913 325.939 104.331 325.505 104.935C325.07 105.54 324.881 106.286 324.973 107.024L325.312 109.669C325.378 110.177 325.575 110.658 325.884 111.067C326.192 111.475 326.601 111.797 327.071 111.999L327.162 112.038C328.094 112.437 328.889 113.101 329.448 113.947C330.007 114.794 330.304 115.787 330.303 116.801C330.303 117.068 330.208 117.327 330.033 117.53C329.859 117.733 329.618 117.867 329.354 117.908L326.482 118.35C325.929 118.432 325.425 118.711 325.061 119.135C324.697 119.559 324.498 120.1 324.5 120.659V122.949L325.261 123.158L325.278 123.092C325.531 122.079 326.121 121.182 326.951 120.55C327.781 119.917 328.801 119.585 329.845 119.609L332.983 119.693L334.499 109.923C334.522 109.778 334.573 109.639 334.649 109.513C334.726 109.387 334.826 109.278 334.945 109.191C335.064 109.104 335.198 109.042 335.341 109.007C335.484 108.972 335.632 108.966 335.778 108.988C335.923 109.011 336.063 109.062 336.188 109.138C336.314 109.215 336.423 109.315 336.51 109.434C336.597 109.553 336.659 109.687 336.694 109.83C336.729 109.973 336.735 110.121 336.713 110.267L336.297 112.949C336.618 114.501 339.265 126.028 347.892 131.542C348.688 131.91 359.08 136.502 367.199 129.707C367.221 129.688 367.243 129.671 367.267 129.654L371.215 126.835L372.539 125.565C374.435 123.753 375.558 121.279 375.675 118.659L375.809 115.786L373.435 117.946C371.555 119.653 370.38 122 370.138 124.527L369.956 126.418C369.934 126.649 369.84 126.866 369.689 127.042C364.171 133.443 354.2 131.409 353.778 131.319C345.041 129.303 344.049 119.92 344.04 119.826C344.036 119.786 344.034 119.747 344.035 119.708C344.224 101.503 340.232 97.5915 339.967 97.3535C339.84 97.2739 339.732 97.1679 339.65 97.0428C339.568 96.9177 339.514 96.7764 339.491 96.6285C339.468 96.4736 339.478 96.3156 339.521 96.165C339.564 96.0145 339.639 95.8749 339.74 95.7557C343.224 91.2891 348.566 88.6658 355.189 88.1696C357.801 87.9808 360.425 88.1036 363.008 88.5354C365.266 77.3859 370.946 71.827 375.389 69.1139C378.037 67.4816 380.989 66.4049 384.067 65.9493C384.489 61.5203 386.095 58.1653 388.849 55.9672C391.899 53.5331 395.585 53.1448 397.791 53.1748C394.617 46.6169 387.456 42.8617 376.472 42.0031V42.0031ZM293.376 85.9171C293.13 85.9171 292.889 85.8441 292.685 85.7074C292.48 85.5707 292.321 85.3764 292.227 85.149C292.132 84.9216 292.108 84.6715 292.156 84.4301C292.204 84.1887 292.322 83.967 292.496 83.793C292.67 83.619 292.892 83.5005 293.133 83.4525C293.375 83.4045 293.625 83.4291 293.852 83.5233C294.08 83.6175 294.274 83.7769 294.411 83.9816C294.547 84.1862 294.62 84.4267 294.62 84.6728C294.62 85.0027 294.489 85.319 294.255 85.5523C294.022 85.7855 293.706 85.9167 293.376 85.9171ZM361.427 85.0259C361.381 85.1656 361.308 85.2947 361.211 85.406C361.115 85.5173 360.998 85.6086 360.866 85.6746C360.735 85.7406 360.592 85.78 360.445 85.7906C360.298 85.8013 360.151 85.7829 360.011 85.7366C359.871 85.6902 359.742 85.6168 359.631 85.5206C359.52 85.4243 359.428 85.3071 359.363 85.1756C359.297 85.0441 359.257 84.9008 359.246 84.7541C359.236 84.6073 359.254 84.4599 359.301 84.3202C359.338 84.2068 363.013 72.8841 359.34 64.5779C359.279 64.4432 359.246 64.298 359.242 64.1504C359.237 64.0029 359.262 63.856 359.315 63.7182C359.368 63.5803 359.448 63.4543 359.549 63.3473C359.651 63.2404 359.773 63.1546 359.908 63.0949C360.043 63.0352 360.188 63.0027 360.336 62.9994C360.483 62.9962 360.63 63.0221 360.768 63.0757C360.905 63.1294 361.031 63.2097 361.137 63.312C361.244 63.4143 361.329 63.5367 361.388 63.672C365.416 72.7777 361.592 84.5301 361.427 85.0259ZM363.74 45.8841C363.075 51.0523 359.248 60.3448 344.786 75.2653C344.684 75.3709 344.562 75.4553 344.427 75.5137C344.292 75.5721 344.147 75.6034 344 75.6057C343.853 75.608 343.707 75.5813 343.57 75.5272C343.433 75.473 343.308 75.3925 343.203 75.2901C343.097 75.1878 343.013 75.0657 342.954 74.9307C342.896 74.7958 342.865 74.6506 342.862 74.5036C342.86 74.3566 342.887 74.2105 342.941 74.0738C342.995 73.9371 343.076 73.8123 343.178 73.7067C349.519 67.1642 360.333 54.813 361.517 45.5986C361.536 45.4527 361.583 45.312 361.656 45.1844C361.729 45.0568 361.827 44.9449 361.943 44.855C362.06 44.7651 362.193 44.699 362.335 44.6605C362.477 44.622 362.625 44.6118 362.771 44.6306C362.916 44.6493 363.057 44.6966 363.185 44.7698C363.312 44.8429 363.424 44.9405 363.514 45.0569C363.604 45.1732 363.67 45.3062 363.709 45.4481C363.747 45.5901 363.757 45.7382 363.739 45.8841H363.74ZM381.159 64.9529C380.871 65.0222 380.567 64.9739 380.313 64.8188C380.06 64.6637 379.879 64.4144 379.81 64.1258C379.707 63.7039 377.188 53.9648 365.381 52.017C365.234 51.9947 365.094 51.9435 364.967 51.8664C364.841 51.7893 364.731 51.6879 364.643 51.5679C364.556 51.448 364.494 51.312 364.46 51.1677C364.426 51.0235 364.421 50.8739 364.445 50.7276C364.469 50.5814 364.522 50.4413 364.6 50.3157C364.679 50.19 364.782 50.0812 364.903 49.9956C365.024 49.91 365.161 49.8492 365.305 49.8169C365.45 49.7845 365.599 49.7812 365.745 49.8071C372.69 50.9528 376.733 54.6237 378.901 57.5015C381.256 60.6267 381.959 63.4818 381.987 63.6018C382.022 63.7449 382.028 63.8934 382.005 64.0387C381.982 64.1841 381.93 64.3235 381.853 64.449C381.777 64.5745 381.676 64.6836 381.557 64.77C381.438 64.8565 381.303 64.9186 381.159 64.9529Z" fill="white"/>
<path d="M371.969 90.5709C371.216 92.7033 370.645 94.8955 370.261 97.124C370.236 97.2689 370.239 97.4173 370.271 97.5609C370.303 97.7044 370.363 97.8403 370.447 97.9607C370.531 98.0812 370.639 98.1838 370.763 98.2628C370.887 98.3418 371.025 98.3955 371.17 98.421C371.234 98.4323 371.3 98.4379 371.365 98.438C371.628 98.4377 371.883 98.3447 372.084 98.1754C372.286 98.0061 372.421 97.7712 372.467 97.5121C372.828 95.4082 373.367 93.3387 374.077 91.3255C374.127 91.187 374.148 91.0402 374.141 90.8933C374.134 90.7465 374.098 90.6024 374.035 90.4695C373.972 90.3366 373.884 90.2173 373.775 90.1186C373.666 90.0198 373.539 89.9435 373.4 89.8939C373.262 89.8444 373.115 89.8226 372.968 89.8298C372.821 89.837 372.677 89.8731 372.544 89.9359C372.411 89.9988 372.292 90.0872 372.193 90.1962C372.095 90.3051 372.018 90.4325 371.969 90.5709V90.5709Z" fill="white"/>
<path d="M378.033 83.9112C378.125 83.7946 378.192 83.6611 378.231 83.5184C378.27 83.3756 378.281 83.2265 378.262 83.0797C378.244 82.9328 378.196 82.7911 378.122 82.6628C378.048 82.5345 377.95 82.4221 377.832 82.3321C377.715 82.2421 377.581 82.1763 377.437 82.1385C377.294 82.1007 377.145 82.0916 376.998 82.1119C376.852 82.1321 376.711 82.1812 376.583 82.2564C376.456 82.3315 376.344 82.4312 376.255 82.5497C375.886 83.0318 375.526 83.5385 375.184 84.0553C375.103 84.178 375.047 84.3155 375.019 84.4598C374.991 84.6042 374.992 84.7527 375.022 84.8968C375.051 85.0408 375.109 85.1777 375.191 85.2995C375.273 85.4213 375.379 85.5258 375.502 85.6068C375.624 85.6879 375.762 85.744 375.906 85.7719C376.05 85.7998 376.199 85.799 376.343 85.7696C376.487 85.7401 376.624 85.6826 376.746 85.6002C376.868 85.5179 376.972 85.4124 377.053 85.2897C377.366 84.8158 377.696 84.3524 378.033 83.9112V83.9112Z" fill="white"/>
<path d="M392.537 73.3163C390.924 73.4373 389.333 73.7653 387.804 74.2921C384.811 75.2761 382.044 76.8474 379.665 78.914C379.554 79.0104 379.463 79.1277 379.397 79.2593C379.332 79.3909 379.293 79.5341 379.282 79.6808C379.272 79.8274 379.291 79.9747 379.337 80.1142C379.384 80.2537 379.457 80.3826 379.554 80.4936C379.65 80.6046 379.768 80.6956 379.899 80.7613C380.031 80.827 380.174 80.8661 380.321 80.8764C380.467 80.8868 380.615 80.8681 380.754 80.8215C380.893 80.7749 381.022 80.7013 381.133 80.6049C383.287 78.734 385.792 77.3113 388.502 76.42C389.835 75.9623 391.219 75.6716 392.623 75.5544C392.919 75.5431 393.199 75.4144 393.401 75.1965C393.603 74.9787 393.71 74.6896 393.699 74.3928C393.688 74.096 393.559 73.8159 393.341 73.614C393.123 73.4121 392.834 73.305 392.537 73.3163V73.3163Z" fill="white"/>
<path d="M333.879 61.1114C334.127 61.2747 334.43 61.3328 334.721 61.2729C335.012 61.2129 335.267 61.0399 335.43 60.7919C335.594 60.5438 335.652 60.2411 335.592 59.9502C335.532 59.6593 335.359 59.4042 335.111 59.2409C332.074 57.2781 329.408 54.795 327.235 51.9057C327.057 51.669 326.793 51.5121 326.501 51.4692C326.208 51.4264 325.91 51.501 325.672 51.6769C325.435 51.8529 325.276 52.1157 325.231 52.4081C325.187 52.7005 325.259 52.9987 325.434 53.2377C327.764 56.3386 330.623 59.004 333.879 61.1114V61.1114Z" fill="white"/>
<path d="M321.285 40.9961C320.995 41.0619 320.744 41.2401 320.585 41.4914C320.427 41.7427 320.375 42.0466 320.441 42.3363C320.903 44.3758 321.581 46.3602 322.465 48.2559C322.59 48.5249 322.818 48.7331 323.097 48.8344C323.376 48.9358 323.684 48.9222 323.953 48.7965C324.222 48.6708 324.43 48.4433 324.532 48.1642C324.633 47.885 324.619 47.577 324.494 47.3079C323.678 45.557 323.052 43.724 322.625 41.84C322.559 41.5504 322.381 41.2988 322.13 41.1406C321.878 40.9823 321.574 40.9304 321.285 40.9961Z" fill="white"/>
<path d="M320.783 35.7496H320.824C321.114 35.7494 321.392 35.6368 321.601 35.4354C321.809 35.234 321.932 34.9596 321.942 34.6698C321.965 33.7658 322.052 32.8646 322.204 31.9731C322.261 31.6825 322.201 31.381 322.037 31.1347C321.872 30.8883 321.617 30.7172 321.327 30.6586C321.036 30.6001 320.735 30.659 320.487 30.8224C320.24 30.9858 320.068 31.2404 320.008 31.5305C319.831 32.5412 319.729 33.5638 319.704 34.5897C319.699 34.7367 319.722 34.8834 319.774 35.0212C319.825 35.1591 319.903 35.2855 320.003 35.3932C320.103 35.5009 320.224 35.5878 320.357 35.649C320.491 35.7102 320.636 35.7443 320.783 35.7496V35.7496Z" fill="white"/>
</svg>
