<svg width="475" height="369" viewBox="0 0 475 369" fill="none" xmlns="http://www.w3.org/2000/svg">
<path d="M49.4926 332V265.76C57.8126 265.184 65.6846 264.896 73.1086 264.896C82.6446 264.896 89.3326 267.392 93.1726 272.384C97.0126 277.312 98.9326 286.144 98.9326 298.88C98.9326 311.616 97.0126 320.48 93.1726 325.472C89.3326 330.4 82.6446 332.864 73.1086 332.864C65.6846 332.864 57.8126 332.576 49.4926 332ZM57.9406 272.384V325.28C63.7006 325.408 68.7566 325.472 73.1086 325.472C79.4446 325.472 83.8606 323.552 86.3566 319.712C88.8526 315.808 90.1006 308.864 90.1006 298.88C90.1006 288.896 88.8526 281.952 86.3566 278.048C83.8606 274.144 79.4446 272.192 73.1086 272.192C69.0126 272.192 63.9566 272.256 57.9406 272.384ZM141.659 284.096L140.699 291.776H138.011C135.643 291.776 133.179 292.256 130.619 293.216C128.123 294.112 124.763 295.616 120.539 297.728V332H112.379V285.248H118.715L119.579 292.64C126.811 286.944 133.467 284.096 139.547 284.096H141.659ZM151.198 292.256L150.43 286.208C159.006 284.8 166.526 284.096 172.99 284.096C178.43 284.096 182.462 285.248 185.086 287.552C187.71 289.792 189.022 293.632 189.022 299.072V332H182.59L181.63 324.32C179.39 326.56 176.574 328.544 173.182 330.272C169.854 332 166.238 332.864 162.334 332.864C158.046 332.864 154.622 331.744 152.062 329.504C149.566 327.2 148.318 323.968 148.318 319.808V314.72C148.318 311.072 149.438 308.256 151.678 306.272C153.982 304.224 157.182 303.2 161.278 303.2H180.766V299.072C180.766 296.128 180.094 294.048 178.75 292.832C177.406 291.616 174.91 291.008 171.262 291.008C166.654 291.008 159.966 291.424 151.198 292.256ZM156.67 315.872V318.848C156.67 321.28 157.246 323.072 158.398 324.224C159.55 325.312 161.406 325.856 163.966 325.856C166.398 325.92 169.15 325.344 172.222 324.128C175.358 322.912 178.206 321.152 180.766 318.848V309.44H162.718C160.542 309.504 158.974 310.08 158.014 311.168C157.118 312.256 156.67 313.824 156.67 315.872ZM238.637 325.28L239.501 330.752C234.893 332.352 229.549 333.152 223.469 333.152C215.405 333.152 209.677 331.328 206.285 327.68C202.957 323.968 201.293 317.6 201.293 308.576C201.293 299.552 202.957 293.216 206.285 289.568C209.677 285.92 215.437 284.096 223.565 284.096C229.709 284.096 234.733 284.832 238.637 286.304L237.581 291.584C233.357 291.2 229.133 291.008 224.909 291.008C219.277 291.008 215.373 292.256 213.197 294.752C211.021 297.248 209.933 301.856 209.933 308.576C209.933 315.36 211.021 320 213.197 322.496C215.373 324.992 219.277 326.24 224.909 326.24C230.029 326.24 234.605 325.92 238.637 325.28ZM250.854 292.256L250.086 286.208C258.662 284.8 266.182 284.096 272.646 284.096C278.086 284.096 282.118 285.248 284.742 287.552C287.366 289.792 288.678 293.632 288.678 299.072V332H282.246L281.286 324.32C279.046 326.56 276.23 328.544 272.838 330.272C269.51 332 265.894 332.864 261.99 332.864C257.702 332.864 254.278 331.744 251.718 329.504C249.222 327.2 247.974 323.968 247.974 319.808V314.72C247.974 311.072 249.094 308.256 251.334 306.272C253.638 304.224 256.838 303.2 260.934 303.2H280.422V299.072C280.422 296.128 279.75 294.048 278.406 292.832C277.062 291.616 274.566 291.008 270.918 291.008C266.31 291.008 259.622 291.424 250.854 292.256ZM256.326 315.872V318.848C256.326 321.28 256.902 323.072 258.054 324.224C259.206 325.312 261.062 325.856 263.622 325.856C266.054 325.92 268.806 325.344 271.878 324.128C275.014 322.912 277.862 321.152 280.422 318.848V309.44H262.374C260.198 309.504 258.63 310.08 257.67 311.168C256.774 312.256 256.326 313.824 256.326 315.872ZM332.534 284.096L331.574 291.776H328.886C326.518 291.776 324.054 292.256 321.494 293.216C318.998 294.112 315.638 295.616 311.414 297.728V332H303.254V285.248H309.59L310.454 292.64C317.686 286.944 324.342 284.096 330.422 284.096H332.534ZM383.257 285.248L364.537 334.592C360.441 345.6 353.625 351.328 344.089 351.776L343.321 346.4C346.969 345.248 349.817 343.648 351.865 341.6C353.977 339.616 355.673 337.088 356.953 334.016L357.721 332H355.897C354.361 332 353.401 331.296 353.017 329.888L336.025 285.248H344.761L357.145 320.096C358.041 322.72 358.617 324.608 358.873 325.76H360.217C360.729 324.48 361.401 322.592 362.233 320.096L374.425 285.248H383.257ZM413.909 313.088L400.469 310.016C396.629 309.12 393.909 307.68 392.309 305.696C390.709 303.712 389.909 300.8 389.909 296.96C389.909 291.776 391.253 288.32 393.941 286.592C396.693 284.8 401.429 283.968 408.149 284.096C415.637 284.224 422.197 284.704 427.829 285.536L427.157 291.488C417.429 291.168 411.509 291.008 409.397 291.008C404.661 290.944 401.557 291.232 400.085 291.872C398.613 292.512 397.877 294.208 397.877 296.96C397.877 299.2 398.357 300.736 399.317 301.568C400.341 302.4 402.133 303.104 404.693 303.68L418.325 306.752C422.165 307.712 424.917 309.152 426.581 311.072C428.309 312.928 429.173 315.776 429.173 319.616C429.173 325.056 427.669 328.672 424.661 330.464C421.653 332.192 416.501 333.056 409.205 333.056C402.677 333.056 396.565 332.608 390.869 331.712L391.445 325.76C396.885 326.08 402.261 326.208 407.573 326.144C413.013 326.144 416.661 325.728 418.517 324.896C420.373 324.064 421.301 322.304 421.301 319.616C421.301 317.504 420.725 316.064 419.573 315.296C418.485 314.464 416.597 313.728 413.909 313.088Z" fill="#6F1703"/>
<path d="M221.5 228.399L220.957 234.178L222.452 234.838L223.295 232.115C222.627 230.911 222.027 229.671 221.5 228.399V228.399Z" fill="#6F1703"/>
<path d="M233.853 238.934C237.953 242.871 242.868 245.859 248.25 247.686C238.558 240.037 233.168 229.051 230.356 221.207L229.533 226.507C229.452 227.018 229.189 227.483 228.791 227.814C228.394 228.146 227.89 228.322 227.372 228.309L226.115 228.275C228.045 232.257 230.665 235.866 233.853 238.934V238.934Z" fill="#6F1703"/>
<path d="M170.733 110.603C179.014 124.702 182.682 136.581 183.152 138.163C184.337 138.498 185.47 138.837 186.551 139.179C185.285 135.337 182.131 125.946 179.858 120.689C179.747 120.433 179.687 120.157 179.683 119.877C179.679 119.598 179.73 119.32 179.833 119.06C179.936 118.801 180.089 118.564 180.284 118.363C180.479 118.162 180.711 118.002 180.967 117.891C181.224 117.78 181.5 117.721 181.779 117.717C182.059 117.712 182.337 117.763 182.596 117.866C182.856 117.969 183.093 118.123 183.294 118.317C183.495 118.512 183.655 118.744 183.766 119.001C186.737 125.874 190.983 139.028 191.162 139.585C191.282 139.963 191.294 140.368 191.195 140.753C195.116 142.134 198.914 143.84 202.552 145.852C203.585 145.667 205.495 145.364 207.976 145.146C203.039 131.528 208.582 120.432 211.315 116.146C195.495 105.014 189.598 91.0374 187.452 81.1065C186.173 75.28 185.831 69.2871 186.438 63.3529C168.686 60.4573 157.216 54.3569 152.338 45.2081C149.88 40.5175 149.184 35.1011 150.377 29.9414C141.612 32.9696 135.241 37.8548 131.411 44.4961C125.594 54.5833 127.278 65.8964 127.946 69.1816C139.792 74.7285 156.504 86.3781 170.733 110.603V110.603ZM145.323 48.836C137.892 56.2521 141.763 66.5559 141.802 66.6592C141.903 66.9199 141.952 67.1978 141.945 67.4773C141.938 67.7567 141.877 68.0321 141.764 68.2878C141.651 68.5434 141.489 68.7743 141.287 68.9673C141.084 69.1603 140.846 69.3116 140.586 69.4125C140.325 69.5134 140.047 69.5619 139.768 69.5554C139.488 69.5489 139.213 69.4874 138.957 69.3744C138.701 69.2615 138.47 69.0993 138.277 68.8971C138.084 68.6949 137.933 68.4566 137.832 68.196C137.628 67.669 132.942 55.1781 142.316 45.8249C142.715 45.4261 143.257 45.2024 143.821 45.203C144.386 45.2036 144.927 45.4284 145.326 45.828C145.724 46.2276 145.948 46.7693 145.948 47.3338C145.947 47.8983 145.722 48.4395 145.323 48.8382V48.836ZM148.327 68.1564C148.134 67.6264 148.16 67.0414 148.398 66.5301C148.636 66.0188 149.067 65.623 149.597 65.4297C162.822 60.61 179.316 69.2373 180.012 69.6074C180.259 69.7386 180.477 69.917 180.655 70.1327C180.833 70.3483 180.967 70.5968 181.048 70.8641C181.13 71.1314 181.159 71.4122 181.132 71.6904C181.105 71.9687 181.024 72.2389 180.893 72.4858C180.762 72.7326 180.583 72.9513 180.368 73.1291C180.152 73.307 179.903 73.4407 179.636 73.5225C179.369 73.6043 179.088 73.6327 178.81 73.606C178.532 73.5793 178.261 73.4981 178.014 73.3669C177.79 73.2488 162.461 65.2734 151.056 69.4304C150.793 69.5261 150.514 69.569 150.234 69.5567C149.955 69.5444 149.681 69.4772 149.427 69.3589C149.174 69.2406 148.946 69.0735 148.757 68.8672C148.569 68.6608 148.422 68.4193 148.327 68.1564Z" fill="#6F1703"/>
<path d="M209.557 191.728C208.439 190.948 207.074 190.009 205.469 188.947L200.419 203.525C200.254 203.997 200.211 204.502 200.295 204.994C200.378 205.486 200.584 205.949 200.895 206.34L204.489 210.891C204.766 211.244 205.12 211.529 205.525 211.725C205.929 211.921 206.372 212.022 206.822 212.021C208.248 212.019 209.643 212.44 210.83 213.23C212.018 214.021 212.944 215.146 213.492 216.463L213.744 217.069L215.971 216.726C215.72 215.979 215.314 215.294 214.78 214.716C214.246 214.137 213.595 213.677 212.871 213.368L212.699 213.294C211.125 212.616 209.754 211.54 208.721 210.172C207.689 208.804 207.029 207.192 206.807 205.492L206.163 200.465C205.96 198.841 206.164 197.193 206.757 195.668C207.349 194.143 208.311 192.789 209.557 191.728V191.728Z" fill="#6F1703"/>
<path d="M308.277 76.3282C294.066 75.2177 280.769 77.1543 276.46 77.8847C274.649 87.9715 266.769 105.254 240.674 132.179C239.26 133.638 237.827 136.434 236.44 139.137C233.49 144.887 230.147 151.409 224.405 150.179C213.633 147.874 202.714 150.156 202.604 150.179C202.058 150.296 201.487 150.194 201.016 149.894C200.935 149.842 192.442 144.545 176.228 140.774C172.952 139.985 169.582 139.654 166.215 139.789C165.499 141.929 164.619 144.01 163.582 146.013C163.297 146.493 162.835 146.842 162.295 146.985C161.755 147.127 161.181 147.052 160.696 146.775C160.211 146.498 159.854 146.041 159.703 145.504C159.551 144.967 159.617 144.391 159.885 143.902C161.02 141.917 162.555 137.487 163.604 134.201C154.71 136.276 154.55 147.576 154.547 148.103C154.545 148.667 154.32 149.206 153.921 149.604C153.522 150.002 152.982 150.225 152.418 150.226H152.414C151.85 150.225 151.31 150.001 150.912 149.602C150.514 149.203 150.29 148.663 150.29 148.099C150.377 144.998 151.036 141.939 152.236 139.077C153.231 136.663 154.796 134.525 156.797 132.848C157.066 130.545 157.083 128.22 156.848 125.914C147.909 133.869 146.54 151.151 146.486 151.91L145.947 166.304C145.943 166.452 145.992 166.596 146.086 166.71C146.179 166.825 146.31 166.902 146.456 166.928L151.341 167.816L154.425 162.969C154.673 162.58 155.042 162.281 155.474 162.119C155.537 162.095 161.334 159.825 163.667 154.599C162.04 154.801 161.078 155.024 161.034 155.034C160.486 155.168 159.907 155.079 159.424 154.786C158.942 154.492 158.596 154.02 158.462 153.471C158.328 152.923 158.417 152.344 158.71 151.861C159.003 151.379 159.476 151.032 160.024 150.898C160.941 150.674 182.647 145.587 198.986 161.658C199.389 162.054 199.618 162.594 199.622 163.158C199.627 163.723 199.407 164.266 199.011 164.668C198.616 165.071 198.076 165.3 197.512 165.304C196.947 165.309 196.404 165.089 196.001 164.694C194.859 163.57 193.642 162.525 192.358 161.567C193.9 168.274 197.503 178.773 205.498 183.887C208.861 186.04 211.453 187.858 213.167 189.061L213.907 189.579C213.939 189.572 213.969 189.562 214.001 189.555L222.111 187.933C223.657 187.625 225.254 187.692 226.769 188.128C228.283 188.565 229.671 189.358 230.816 190.441L235.974 195.328C236.179 195.519 236.343 195.75 236.459 196.005C236.574 196.261 236.638 196.537 236.646 196.817C236.654 197.098 236.607 197.377 236.507 197.639C236.407 197.901 236.257 198.141 236.064 198.344C235.871 198.548 235.64 198.711 235.383 198.825C235.127 198.939 234.851 199.002 234.57 199.008C234.29 199.015 234.011 198.967 233.749 198.865C233.488 198.764 233.249 198.612 233.046 198.418L227.889 193.531C227.239 192.916 226.451 192.466 225.591 192.218C224.731 191.971 223.825 191.933 222.947 192.108L214.836 193.727C213.451 194.008 212.222 194.803 211.397 195.951C210.572 197.1 210.211 198.518 210.387 199.921L211.031 204.95C211.157 205.914 211.532 206.83 212.118 207.606C212.704 208.383 213.482 208.993 214.375 209.379L214.547 209.452C216.32 210.21 217.831 211.472 218.893 213.082C219.955 214.691 220.52 216.578 220.519 218.506C220.519 219.014 220.337 219.506 220.006 219.892C219.675 220.278 219.217 220.532 218.714 220.61L213.255 221.45C212.204 221.606 211.245 222.136 210.553 222.943C209.861 223.749 209.483 224.777 209.488 225.84V230.193L210.935 230.59L210.966 230.464C211.446 228.539 212.568 226.834 214.146 225.631C215.723 224.428 217.664 223.797 219.647 223.843L225.613 224.003L228.495 205.433C228.537 205.156 228.634 204.891 228.78 204.653C228.925 204.414 229.116 204.206 229.341 204.041C229.567 203.876 229.823 203.757 230.095 203.691C230.366 203.625 230.648 203.613 230.925 203.655C231.201 203.698 231.466 203.795 231.705 203.94C231.944 204.086 232.152 204.277 232.317 204.502C232.482 204.728 232.601 204.984 232.667 205.256C232.733 205.527 232.745 205.809 232.702 206.085L231.911 211.184C232.522 214.134 237.554 236.044 253.952 246.526C255.465 247.226 275.219 255.955 290.65 243.037C290.692 243.003 290.735 242.969 290.78 242.938L298.285 237.579L300.801 235.165C304.405 231.72 306.54 227.018 306.763 222.038L307.017 216.576L302.504 220.682C298.932 223.927 296.697 228.388 296.238 233.193L295.891 236.786C295.849 237.224 295.672 237.639 295.385 237.972C284.894 250.14 265.942 246.273 265.14 246.103C248.532 242.27 246.647 224.435 246.63 224.255C246.622 224.181 246.619 224.106 246.62 224.031C246.979 189.427 239.391 181.992 238.888 181.54C238.647 181.388 238.442 181.187 238.285 180.949C238.129 180.711 238.026 180.443 237.983 180.161C237.939 179.867 237.958 179.567 238.04 179.281C238.121 178.994 238.263 178.729 238.456 178.503C245.079 170.012 255.233 165.026 267.822 164.083C272.786 163.724 277.775 163.957 282.684 164.778C286.976 143.585 297.774 133.018 306.219 127.861C311.252 124.758 316.864 122.712 322.713 121.846C323.516 113.427 326.57 107.05 331.805 102.872C337.602 98.2446 344.607 97.5066 348.801 97.5636C342.768 85.0983 329.157 77.9602 308.277 76.3282V76.3282ZM150.326 159.801C149.859 159.801 149.401 159.662 149.012 159.402C148.623 159.143 148.32 158.773 148.141 158.341C147.962 157.909 147.915 157.433 148.007 156.975C148.098 156.516 148.323 156.094 148.654 155.764C148.985 155.433 149.406 155.208 149.865 155.116C150.324 155.025 150.799 155.072 151.232 155.251C151.664 155.43 152.033 155.733 152.293 156.122C152.553 156.511 152.692 156.968 152.692 157.436C152.691 158.063 152.441 158.664 151.998 159.108C151.555 159.551 150.953 159.8 150.326 159.801ZM279.68 158.107C279.592 158.373 279.453 158.618 279.27 158.83C279.087 159.041 278.864 159.215 278.614 159.34C278.364 159.465 278.092 159.54 277.813 159.561C277.534 159.581 277.254 159.546 276.988 159.458C276.723 159.37 276.477 159.23 276.266 159.047C276.054 158.864 275.881 158.642 275.755 158.392C275.63 158.142 275.555 157.869 275.535 157.59C275.514 157.311 275.549 157.031 275.637 156.766C275.709 156.55 282.695 135.028 275.711 119.239C275.596 118.983 275.533 118.707 275.525 118.426C275.517 118.146 275.565 117.867 275.665 117.605C275.766 117.343 275.917 117.103 276.11 116.9C276.304 116.697 276.535 116.533 276.792 116.42C277.049 116.306 277.325 116.245 277.605 116.239C277.886 116.232 278.165 116.282 278.426 116.384C278.688 116.486 278.926 116.638 279.129 116.833C279.331 117.027 279.492 117.26 279.604 117.517C287.263 134.825 279.993 157.165 279.68 158.107ZM284.075 83.7052C282.812 93.5292 275.537 111.192 248.048 139.554C247.854 139.755 247.621 139.915 247.365 140.026C247.108 140.137 246.833 140.196 246.553 140.201C246.274 140.205 245.996 140.155 245.736 140.052C245.476 139.949 245.239 139.796 245.038 139.601C244.838 139.407 244.677 139.174 244.566 138.918C244.455 138.661 244.396 138.385 244.391 138.106C244.387 137.826 244.438 137.549 244.541 137.289C244.644 137.029 244.797 136.792 244.991 136.591C257.044 124.155 277.6 100.678 279.851 83.1626C279.886 82.8853 279.976 82.6178 280.115 82.3753C280.254 82.1327 280.44 81.92 280.661 81.7491C280.882 81.5783 281.135 81.4526 281.405 81.3795C281.674 81.3063 281.956 81.2869 282.233 81.3226C282.511 81.3582 282.778 81.4481 283.021 81.5871C283.263 81.7261 283.476 81.9116 283.647 82.1328C283.818 82.3541 283.943 82.6068 284.016 82.8766C284.09 83.1464 284.109 83.428 284.073 83.7052H284.075ZM317.187 119.952C316.639 120.083 316.06 119.992 315.579 119.697C315.098 119.402 314.754 118.928 314.622 118.38C314.426 117.578 309.638 99.0654 287.195 95.3629C286.917 95.3205 286.649 95.2232 286.409 95.0766C286.168 94.9301 285.959 94.7373 285.793 94.5093C285.628 94.2813 285.509 94.0227 285.444 93.7485C285.379 93.4743 285.37 93.19 285.415 92.912C285.461 92.634 285.562 92.3678 285.711 92.129C285.861 91.8901 286.056 91.6833 286.286 91.5206C286.516 91.3578 286.776 91.2423 287.051 91.1808C287.326 91.1193 287.611 91.113 287.888 91.1623C301.088 93.3401 308.773 100.318 312.895 105.788C317.371 111.728 318.707 117.155 318.761 117.384C318.827 117.656 318.838 117.938 318.794 118.214C318.75 118.49 318.653 118.755 318.507 118.994C318.36 119.232 318.169 119.44 317.942 119.604C317.716 119.769 317.459 119.887 317.187 119.952Z" fill="#6F1703"/>
<path d="M299.717 168.647C298.286 172.7 297.201 176.867 296.472 181.104C296.423 181.379 296.429 181.661 296.49 181.934C296.551 182.207 296.664 182.465 296.825 182.694C296.985 182.923 297.189 183.118 297.425 183.268C297.661 183.418 297.924 183.52 298.199 183.569C298.321 183.59 298.446 183.601 298.57 183.601C299.07 183.601 299.554 183.424 299.937 183.102C300.32 182.78 300.577 182.334 300.664 181.841C301.351 177.842 302.376 173.908 303.725 170.082C303.819 169.818 303.861 169.539 303.847 169.26C303.833 168.981 303.765 168.707 303.645 168.454C303.526 168.202 303.358 167.975 303.151 167.787C302.944 167.6 302.702 167.455 302.438 167.36C302.175 167.266 301.896 167.225 301.617 167.238C301.338 167.252 301.064 167.321 300.811 167.44C300.559 167.56 300.332 167.728 300.144 167.935C299.957 168.142 299.811 168.384 299.717 168.647V168.647Z" fill="#6F1703"/>
<path d="M311.245 155.988C311.419 155.767 311.546 155.513 311.621 155.242C311.696 154.97 311.716 154.687 311.68 154.408C311.645 154.129 311.554 153.859 311.414 153.615C311.274 153.371 311.086 153.158 310.863 152.987C310.64 152.816 310.385 152.69 310.112 152.619C309.84 152.547 309.557 152.53 309.278 152.568C308.999 152.606 308.731 152.7 308.488 152.843C308.246 152.986 308.034 153.175 307.866 153.4C307.164 154.317 306.478 155.28 305.83 156.262C305.676 156.495 305.569 156.757 305.516 157.031C305.463 157.306 305.464 157.588 305.52 157.862C305.576 158.135 305.686 158.396 305.842 158.627C305.999 158.859 306.199 159.057 306.433 159.211C306.666 159.365 306.927 159.472 307.202 159.525C307.476 159.578 307.758 159.577 308.032 159.521C308.306 159.465 308.566 159.355 308.798 159.199C309.029 159.042 309.228 158.842 309.382 158.608C309.976 157.708 310.604 156.827 311.245 155.988V155.988Z" fill="#6F1703"/>
<path d="M338.815 135.849C335.749 136.079 332.725 136.703 329.817 137.704C324.127 139.574 318.868 142.561 314.347 146.489C314.136 146.673 313.963 146.896 313.838 147.146C313.713 147.396 313.639 147.668 313.619 147.947C313.6 148.226 313.635 148.506 313.724 148.771C313.812 149.036 313.952 149.281 314.135 149.492C314.319 149.703 314.542 149.876 314.792 150.001C315.042 150.126 315.314 150.2 315.593 150.22C315.872 150.239 316.152 150.204 316.417 150.115C316.682 150.027 316.927 149.887 317.138 149.704C321.232 146.147 325.994 143.443 331.145 141.749C333.678 140.879 336.308 140.326 338.977 140.103C339.541 140.082 340.073 139.837 340.457 139.423C340.841 139.009 341.044 138.46 341.023 137.895C341.001 137.331 340.757 136.799 340.343 136.415C339.929 136.031 339.379 135.828 338.815 135.849V135.849Z" fill="#6F1703"/>
<path d="M227.316 112.65C227.787 112.96 228.363 113.071 228.916 112.957C229.469 112.843 229.954 112.514 230.264 112.042C230.574 111.571 230.685 110.995 230.571 110.442C230.457 109.89 230.128 109.405 229.657 109.094C223.885 105.363 218.817 100.643 214.686 95.1513C214.348 94.7014 213.847 94.4031 213.29 94.3217C212.734 94.2402 212.168 94.3821 211.716 94.7165C211.264 95.0509 210.963 95.5505 210.878 96.1063C210.793 96.6621 210.931 97.229 211.262 97.6831C215.692 103.577 221.126 108.644 227.316 112.65V112.65Z" fill="#6F1703"/>
<path d="M203.376 74.4141C202.825 74.5392 202.347 74.8779 202.046 75.3556C201.745 75.8333 201.646 76.411 201.771 76.9616C202.65 80.8383 203.94 84.6103 205.619 88.2136C205.857 88.7251 206.29 89.1207 206.82 89.3134C207.351 89.5061 207.936 89.4801 208.448 89.2412C208.959 89.0023 209.355 88.57 209.548 88.0393C209.74 87.5087 209.714 86.9233 209.476 86.4118C207.925 83.0835 206.734 79.5993 205.924 76.0182C205.798 75.4678 205.46 74.9896 204.982 74.6887C204.504 74.3879 203.927 74.2891 203.376 74.4141Z" fill="#6F1703"/>
<path d="M202.422 64.4414H202.5C203.051 64.4411 203.58 64.227 203.977 63.8442C204.373 63.4614 204.606 62.9397 204.625 62.3889C204.668 60.6705 204.835 58.9574 205.123 57.2629C205.232 56.7105 205.118 56.1375 204.805 55.6692C204.493 55.201 204.007 54.8756 203.456 54.7643C202.904 54.6531 202.33 54.765 201.86 55.0756C201.391 55.3861 201.063 55.8701 200.95 56.4215C200.613 58.3428 200.419 60.2866 200.371 62.2366C200.361 62.5161 200.406 62.7948 200.503 63.0569C200.601 63.3189 200.749 63.5592 200.94 63.7639C201.13 63.9687 201.359 64.1339 201.613 64.2502C201.868 64.3664 202.142 64.4314 202.422 64.4414V64.4414Z" fill="#6F1703"/>
</svg>
