<?xml version="1.0" encoding="utf-8"?>
<!-- Generator: Adobe Illustrator 14.0.0, SVG Export Plug-In . SVG Version: 6.00 Build 43363)  -->
<!DOCTYPE svg PUBLIC "-//W3C//DTD SVG 1.1//EN" "http://www.w3.org/Graphics/SVG/1.1/DTD/svg11.dtd">
<svg version="1.1"
	 id="svg2" sodipodi:version="0.32" inkscape:version="0.45.1" inkscape:export-xdpi="72.00943" sodipodi:docbase="/home/lionel/Images/Vectoriel" inkscape:export-ydpi="72.00943" sodipodi:docname="dragon.svg" inkscape:export-filename="/home/lionel/Images/Vectoriel/dragon.png" inkscape:output_extension="org.inkscape.output.svg.inkscape" xmlns:svg="http://www.w3.org/2000/svg" xmlns:cc="http://web.resource.org/cc/" xmlns:dc="http://purl.org/dc/elements/1.1/" xmlns:inkscape="http://www.inkscape.org/namespaces/inkscape" xmlns:rdf="http://www.w3.org/1999/02/22-rdf-syntax-ns#" xmlns:sodipodi="http://sodipodi.sourceforge.net/DTD/sodipodi-0.dtd"
	 xmlns="http://www.w3.org/2000/svg" xmlns:xlink="http://www.w3.org/1999/xlink" x="0px" y="0px" width="679.709px"
	 height="850.333px" viewBox="0 -8.443 679.709 850.333" enable-background="new 0 -8.443 679.709 850.333" xml:space="preserve">
<sodipodi:namedview  id="base" inkscape:cx="698.26527" borderopacity="1.0" bordercolor="#666666" inkscape:zoom="0.49497475" inkscape:cy="440.91391" pagecolor="#ffffff" inkscape:pageshadow="2" inkscape:window-x="0" inkscape:window-height="951" inkscape:window-y="0" inkscape:current-layer="layer2" inkscape:document-units="px" inkscape:window-width="1280" inkscape:pageopacity="1">
	</sodipodi:namedview>
<g id="layer2" inkscape:label="Image" inkscape:groupmode="layer">
	<path id="path1937" d="M194.523,678.458c0,0,6.614,15.487,26.823,25.989c-36.209-3.752-36.209-3.752-108.809-57.715
		c0,0-3.961,43.834-65.931,114.523c32.53-106.561,28.947-121.478,4.214-173.299c-8.773-17.362-20.153,19.926-18.515,36.945
		c-61.835-203.957,153.916-280.679,153.916-280.679l-44.287-31.509c52.702,17.23,440.202-29.77,182.561-116.462
		c0,0,21.142,21.526,18.437,35.256c-4.628-11.563-19.559-15.572-19.559-15.572s10.431,34.842,2.871,51.798
		c-2.607-20.123-35.243-51.926-35.243-51.926s10.803,53.804-84.81,50.951c-49.721-2.147-71.897,6.645-88.816,23.42
		c-13.35,13.235-16.599,15.452-22.648,15.452c-6.99,0-14.588-4.41-23.823-13.827c-3.623-3.694-4.508-6.947-4.458-16.388
		c0.054-10.16,1.11-13.324,7.682-23.017c7.146-10.539,8.701-11.632,25.032-17.595c9.577-3.498,22.517-8.674,28.755-11.504
		c10.032-4.55,11.571-6.067,13.315-13.132c2.102-8.513,3.367-9.416,28.241-20.158c9.034-3.902,16.433-9.726,30.484-23.992
		c16.791-17.049,16.305-21.761,16.742-23.997c2.126-28.576-56.083-0.082-56.083-0.082s12.359-17.964,23.429-25.727
		c30.092-21.101,69.778-1.523,69.778-1.523s68.314-77.578,165.77-110.162c-4.705,3.168-69.582,68.005-68.519,75.294
		c13.397,0.29,20.538,7.561,20.538,7.561c-28.037-1.063-44.774,25.584-44.774,25.584c12.987-7.459,87.718-18.98,87.718-18.98
		s-10.271,6.69-9.931,9.762c75.18-21.638,232.268-17.322,232.268-17.322c-55.755,7.685-163.767,48.154-163.767,48.154
		s79.679-5.803,125.542,10.257c-44.863-2.393-75.326,7.56-90.639,15.867c58.441,31.073,98.813,129.557,98.813,129.557
		s-88.53-96.203-122.055-86.197c0,0,122.684,184.38,14.609,257.953c5.074-24.572,17.675-115.897-19.125-135.901
		c0,0-140.134,120.996-226.448,118.965c21.981-7.636,29.573-21.449,29.573-21.449c-86.925-18.187-113.925,82.813-96.56,121.846
		c-25.033-9.032-61.144-53.433-61.144-53.433s5.718,99.022,126.081,85.045c-18.226,10.896-44.637,22.022-73.802,20.233
		c6.416,18.872,131.705-2.4,139.458-17.396c3.752-7.254,21.614-42.998-22.813-57.439c26.645-14.168,68.57,39.254,68.57,39.254
		s7.797-5.299,44.998-11.798s-26.332-18.948-26.332-18.948c55.408-0.583,81.521,9.249,81.521,9.249
		c9.138-23.55-103.337-82.377-103.337-82.377s496.679,151.096,222.056,350.67c26.711-67.76,26.813-84.333,14.947-119.558
		c-4.281-12.708-9.398-22.516-13.124-25.152c-1.022-0.723,3.722,8.785-14.721,22.387c-24.225-82.769-127.818-82.081-138.267-76.945
		c-57.126,22.426,0.696,58.563,26.624,44.009c-15.011,21.304-58.09,21.02-58.09,21.02s54.674,46.147,102.717,25.392
		c-31.543,77.256-170.705-49.23-170.938-49.651s-48.208,16.001-48.208,16.001s62.426,51.938,92.265,155.797
		C307.138,721.445,194.523,678.458,194.523,678.458z M231.123,191.612c20.22-21.393,18.625-24.149-6.431-11.109
		c-14.519,7.557-39.887,21.442-37.445,28.562c16.727,0.651,26.759,0.657,26.759,0.657L231.123,191.612z"/>
</g>
<path d="M326.838,112.967"/>
</svg>
